HIERARCHY
ROOT Hips
{
	OFFSET 0.00000 0.00000 0.00000
	CHANNELS 6 Xposition Yposition Zposition Yrotation Zrotation Xrotation 
	JOINT Lumbar
	{
		OFFSET 0 0 0
		CHANNELS 3 Zrotation Xrotation Yrotation
		JOINT Neck
		{
			OFFSET 0.00 0.2701 0.00
			CHANNELS 3 Zrotation Xrotation Yrotation
			End Site
			{
				OFFSET 0.00 0.1379 0.00
			}
		}
		JOINT RightShoulder
		{
			OFFSET 0.0119 0.2289 0.1181
			CHANNELS 3 Zrotation Xrotation Yrotation
			JOINT RightElbow
			{
				OFFSET 0.00 -0.1475 0.00
				CHANNELS 2 Zrotation Yrotation
				JOINT RightWrist
				{
					OFFSET 0.00 -0.1605 0.00
					CHANNELS 2 Zrotation Xrotation
					End Site
					{
						OFFSET 0.0040 -0.1068 0.0006
					}
				}
			}
		}
		JOINT LeftShoulder
		{
			OFFSET 0.0119 0.2289 -0.1181
			CHANNELS 3 Zrotation Xrotation Yrotation
			JOINT LeftElbow
			{
				OFFSET 0.00 -0.1475 0.00
				CHANNELS 2 Zrotation Yrotation
				JOINT LeftWrist
				{
					OFFSET 0.00 -0.1605 0.00
					CHANNELS 2 Zrotation Xrotation
					End Site
					{
						OFFSET 0.0040 -0.1068 -0.0006
					}
				}
			}
		}
	}
	JOINT RightHip
	{
		OFFSET 0.0316 -0.0424 0.0458
		CHANNELS 3 Zrotation Xrotation Yrotation
		JOINT RightKnee
		{
			OFFSET 0.00 -0.2438 0.00
			CHANNELS 1 Zrotation
			JOINT RightAnkle
			{
				OFFSET 0.00 -0.2449 0.00
				CHANNELS 3 Zrotation Xrotation Yrotation
				End Site
				{
					OFFSET 0.1237 -0.0542 0.0051
				}
			}
		}
	}
	JOINT LeftHip
	{
		OFFSET 0.0316 -0.0424 -0.0458
		CHANNELS 3 Zrotation Xrotation Yrotation
		JOINT LeftKnee
		{
			OFFSET 0.00 -0.2438 0.00
			CHANNELS 1 Zrotation
			JOINT LeftAnkle
			{
				OFFSET 0.00 -0.2449 0.00
				CHANNELS 3 Zrotation Xrotation Yrotation
				End Site
				{
					OFFSET 0.1237 -0.0542 -0.0051
				}
			}
		}
	}
}
MOTION
Frames: 31
Frame Time: 0.02
-0.92387 0.56917 -0.26648 152.95676 0 -5.43604 -5.75664 7.55651 -6.91589 -56.60734 11.09079 14.27718 51.14982 -40.19458 4.28092 92.05069 39.77084 13.71331 -13.69236 61.7304 -1.92499 -18.12051 14.29167 -82.07468 -3.5418 7.33328 7.91194 2.01836 17.22242 -12.7578 -16.03387 -1.1459 -8.34469 -7.90679 6.08754 17.36614 -5.97404 -1.72022 3.24354 9.77736
-0.9235 0.56884 -0.26805 152.6395 0 -5.39782 -5.89514 7.5819 -6.14272 -56.98078 11.72242 14.76446 52.40645 -41.1745 5.33312 90.97036 41.10222 14.11667 -13.20622 61.67398 -2.46763 -17.8519 14.05791 -82.01941 -3.46635 7.14941 8.63403 2.48031 17.48211 -14.19265 -15.68011 -1.17301 -8.85536 -8.23201 6.0883 17.65321 -5.50328 -1.85339 3.22421 9.6641
-0.92305 0.56844 -0.26993 152.2587 0 -5.34473 -6.05072 7.5822 -5.19486 -57.43527 12.55629 15.41304 54.15209 -42.45382 6.75458 89.50849 42.59281 14.61517 -12.62276 61.60681 -3.20808 -17.64535 13.76606 -81.92521 -3.36281 6.92134 9.49891 3.03067 17.71141 -15.90481 -15.26926 -1.20334 -9.47025 -8.58927 6.08707 17.99299 -5.00373 -1.9916 3.21243 9.55295
-0.92265 0.56807 -0.27171 151.91544 0 -5.30211 -6.20114 7.60294 -4.33301 -57.85332 13.32007 16.00126 55.78311 -43.59831 8.15465 88.1224 44.17111 14.96689 -12.05739 61.52921 -3.87931 -17.393 13.49478 -81.8466 -3.27144 6.71093 10.27979 3.5366 17.8778 -17.45438 -14.89257 -1.23109 -10.03186 -8.93094 6.0942 18.30835 -4.52301 -2.12592 3.19599 9.43766
-0.92217 0.56769 -0.27333 151.53174 0 -5.24383 -6.34093 7.5834 -3.43728 -58.26747 13.99797 16.53733 56.97952 -44.74143 8.9628 87.1377 45.12279 15.74077 -11.59493 61.51063 -4.46852 -17.1955 13.24449 -81.77521 -3.18115 6.50999 11.14672 4.06258 18.35826 -19.16651 -14.48067 -1.26346 -10.62168 -9.28088 6.06877 18.62947 -4.01174 -2.26852 3.18417 9.3347
-0.92184 0.56733 -0.27536 151.22251 0 -5.21469 -6.50731 7.64493 -2.57879 -58.70787 14.89528 17.21967 59.16867 -45.9567 11.05809 85.2345 47.37317 15.67531 -10.90088 61.36739 -5.2705 -16.92385 12.93961 -81.68112 -3.08333 6.27838 11.86255 4.56599 18.18907 -20.59802 -14.12846 -1.2872 -11.17397 -9.61627 6.11255 18.94626 -3.56515 -2.39329 3.16501 9.20734
-0.92191 0.56703 -0.27848 151.08779 0 -5.26832 -6.73611 7.90768 -1.79233 -59.22603 16.41303 18.26154 64.23559 -47.30416 16.90582 80.84213 53.48839 13.12532 -9.55426 60.90021 -6.64835 -16.20792 12.47991 -81.5222 -2.96126 5.98271 12.1723 4.99742 16.13207 -21.24576 -13.95873 -1.28402 -11.62564 -9.94455 6.32942 19.27832 -3.2383 -2.48299 3.12024 9.00859
-0.92213 0.56676 -0.28202 151.03918 0 -5.35167 -6.99207 8.25791 -1.0622 -59.76413 18.13327 19.44448 70.23418 -48.71349 23.98167 75.55125 60.84498 9.75474 -7.98569 60.30648 -8.22588 -15.45451 11.97147 -81.34416 -2.83456 5.65653 12.31665 5.40049 13.43966 -21.59061 -13.85055 -1.27244 -12.03074 -10.2486 6.61888 19.59551 -2.99082 -2.55211 3.06849 8.7866
-0.92229 0.5665 -0.28537 150.98128 0 -5.42271 -7.24008 8.58727 -0.35541 -60.27681 19.71789 20.56705 75.64315 -50.08835 30.30699 70.69888 67.41957 6.85378 -6.54311 59.75909 -9.68824 -14.86834 11.49693 -81.18239 -2.71683 5.33758 12.50584 5.80883 11.10678 -22.03445 -13.7118 -1.26622 -12.43813 -10.53795 6.88782 19.89478 -2.74898 -2.61996 3.02224 8.57684
-0.9224 0.56617 -0.28871 150.79386 0 -5.48962 -7.4707 8.83718 0.56082 -60.85979 21.49087 21.68401 81.7846 -51.49543 37.46036 65.6926 74.9116 3.54642 -4.98975 59.25502 -11.26264 -13.66027 10.9686 -80.98664 -2.56916 5.04336 12.82654 6.2533 8.48085 -22.64923 -13.5817 -1.25365 -12.92802 -10.94041 7.10615 20.30509 -2.32602 -2.73103 2.96647 8.35747
-0.92265 0.56598 -0.29217 150.89914 0 -5.57055 -7.74311 9.27222 1.02927 -61.30195 22.92045 22.8384 86.59808 -52.85261 43.17227 60.81493 80.79569 0.89123 -3.61727 58.63502 -12.64601 -13.72519 10.54417 -80.8584 -2.48308 4.69314 12.83411 6.61355 6.30632 -22.83493 -13.44933 -1.25219 -13.23471 -11.09682 7.44455 20.47359 -2.3046 -2.7494 2.92873 8.15587
-0.92328 0.56616 -0.29591 151.77593 0 -5.69873 -8.12991 10.20886 0.23976 -61.33348 23.32105 24.10765 87.65551 -53.99593 44.62523 56.37644 81.84349 0.22305 -2.78674 57.69032 -13.4734 -17.41712 10.39478 -80.91422 -2.56841 4.17764 12.00029 6.75667 5.60931 -21.88686 -13.29262 -1.28429 -13.03741 -10.61699 8.11841 20.03367 -3.32812 -2.49772 2.94271 7.98056
-0.92404 0.56649 -0.29975 152.94611 0 -5.83702 -8.55682 11.32607 -0.99181 -61.22531 23.37379 25.39917 87.31264 -55.09366 44.57523 52.12762 81.24567 0.24224 -2.14923 56.64004 -14.09684 -22.36754 10.35546 -81.03959 -2.7157 3.61074 10.85988 6.81391 5.37633 -20.52068 -13.13238 -1.32767 -12.65868 -9.88411 8.90607 19.34167 -4.76038 -2.15734 2.97489 7.82903
-0.92473 0.56675 -0.30353 153.99434 0 -5.96057 -8.96138 12.35379 -1.99992 -61.19185 23.60537 26.65089 87.52154 -56.25465 45.20211 47.88053 81.46227 -0.04469 -1.43083 55.6615 -14.79931 -26.67974 10.28285 -81.13864 -2.83501 3.07913 9.86995 6.90454 4.87925 -19.35917 -12.97597 -1.36534 -12.36866 -9.2414 9.62805 18.72649 -6.03609 -1.86968 2.99872 7.68554
-0.92549 0.56699 -0.3074 155.00331 0 -6.12847 -9.3837 13.41848 -3.10893 -61.112 23.75693 28.03751 88.13405 -57.25112 45.9143 43.22277 81.44532 -0.38848 -0.67328 54.57823 -15.56656 -31.28871 10.14169 -81.21698 -2.95461 2.49487 8.82583 7.01831 4.5774 -18.12394 -12.81212 -1.40527 -12.05043 -8.69921 10.41356 18.26431 -7.19555 -1.5276 3.02314 7.46256
-0.92612 0.56733 -0.31109 156.15528 0 -6.2054 -9.77896 14.4447 -4.1073 -61.09502 23.98935 29.14087 87.54411 -58.56263 46.05543 39.48704 81.50278 -0.43761 -0.04916 53.68968 -16.14776 -35.55613 10.16525 -81.35234 -3.08688 2.00995 7.8257 7.0635 3.99652 -16.94872 -12.66231 -1.44319 -11.74877 -7.89224 11.09027 17.4311 -8.68781 -1.27973 3.05012 7.40999
-0.92632 0.56792 -0.3143 157.69174 0 -6.03385 -10.08322 15.3469 -4.73228 -61.28782 24.53253 29.50285 84.12589 -60.8882 45.16174 38.17139 82.20334 0.14282 0.27938 53.36576 -16.26302 -38.76508 10.65885 -81.65357 -3.25194 1.79935 7.00792 6.94329 2.45776 -16.02719 -12.55079 -1.47357 -11.53448 -6.37872 11.4597 15.57168 -11.04468 -1.29838 3.08546 7.83209
-0.92638 0.56861 -0.31733 159.34908 0 -5.76942 -10.36017 16.19838 -5.22263 -61.54799 25.16692 29.56877 79.5206 -63.50511 43.71159 37.79579 83.0217 1.00277 0.47453 53.24202 -16.19661 -41.5495 11.30696 -82.0054 -3.42519 1.69288 6.24876 6.75666 0.64006 -15.18493 -12.4536 -1.50143 -11.34384 -4.61492 11.71129 13.35931 -13.71314 -1.41696 3.12193 8.42319
-0.92652 0.56925 -0.32042 160.91168 0 -5.5438 -10.65345 17.0558 -5.74825 -61.77616 25.75782 29.74028 75.34658 -65.90378 42.38909 37.04752 83.75823 1.74985 0.71261 53.02642 -16.21481 -44.40419 11.85673 -82.31714 -3.58629 1.54724 5.47249 6.59853 -0.9994 -14.31698 -12.35029 -1.52994 -11.14448 -2.98984 12.00282 11.35035 -16.20899 -1.5011 3.15389 8.93048
-0.92659 0.56991 -0.32359 162.6568 0 -5.33238 -10.93066 17.99338 -6.3997 -62.00622 26.34813 30.03844 71.55076 -68.67198 41.52249 36.07808 84.56198 2.46224 1.01814 52.81028 -16.22086 -47.82715 12.52833 -82.70237 -3.78531 1.36579 4.64395 6.44426 -2.844 -13.38959 -12.24475 -1.56088 -10.93033 -1.24892 12.35631 9.15167 -18.85129 -1.53951 3.20247 9.46796
-0.92677 0.57056 -0.32654 164.0414 0 -5.06984 -11.23551 18.74762 -6.75013 -62.249 26.9623 29.99776 66.74151 -70.7294 39.62016 35.78633 85.26947 3.30236 1.15478 52.64485 -16.20731 -49.9411 12.98233 -82.94705 -3.90625 1.28382 3.94377 6.26761 -4.32898 -12.61162 -12.14792 -1.5861 -10.75479 0.30494 12.55066 7.26677 -21.25566 -1.6934 3.21758 9.98265
-0.92729 0.57118 -0.32899 164.44234 0 -4.6836 -11.61345 19.0232 -6.30891 -62.52086 27.65107 29.13115 59.10332 -70.84485 34.77141 37.16823 85.73353 4.44245 0.85089 52.56608 -16.22114 -48.61378 12.79013 -82.77871 -3.81144 1.45552 3.57239 6.04362 -4.79182 -12.21778 -12.06669 -1.59531 -10.68205 1.29517 12.33956 6.34457 -22.93593 -2.18214 3.13028 10.38958
-0.92791 0.5718 -0.33121 164.46606 0 -4.25042 -12.02213 19.11191 -5.56521 -62.80183 28.35624 27.92688 50.55386 -70.21771 28.9491 39.19114 86.09387 5.69506 0.38346 52.53313 -16.21474 -45.96945 12.37494 -82.46916 -3.63731 1.72304 3.33188 5.80056 -4.87749 -11.97518 -11.99494 -1.59889 -10.64751 2.08393 11.97142 5.7506 -24.36077 -2.77641 3.01099 10.76742
-0.92848 0.57242 -0.3335 164.63512 0 -3.84163 -12.42259 19.27577 -4.95431 -63.07263 29.03577 26.8523 42.63806 -69.87076 23.72516 40.90069 86.47803 6.88262 -0.00317 52.48217 -16.19541 -43.86976 12.06567 -82.23215 -3.49769 1.94419 3.04037 5.56731 -5.11317 -11.67172 -11.92175 -1.60565 -10.59563 2.95526 11.67044 5.00007 -25.89634 -3.29646 2.91257 11.16184
-0.92908 0.57306 -0.33592 164.92292 0 -3.41513 -12.79645 19.48075 -4.36162 -63.37159 29.79665 25.86676 33.74995 -69.77685 17.82011 42.74317 86.9693 8.13947 -0.42031 52.42485 -16.26653 -41.96292 11.74062 -81.96168 -3.36405 2.18137 2.71475 5.3252 -5.45102 -11.33846 -11.8358 -1.61003 -10.54602 3.87624 11.38072 4.26479 -27.47164 -3.93134 2.78737 11.5515
-0.92964 0.57364 -0.33802 164.86696 0 -3.01755 -13.23512 19.55446 -3.6572 -63.61263 30.38885 24.62066 26.69028 -68.97447 13.11299 44.44001 87.20451 9.27455 -0.81301 52.39079 -16.14246 -39.37291 11.39584 -81.72667 -3.20007 2.40592 2.49076 5.09995 -5.47991 -11.10102 -11.77992 -1.61766 -10.49841 4.63915 11.03485 3.58471 -28.89188 -4.35015 2.71047 11.93755
-0.93005 0.57409 -0.33927 163.99653 0 -2.6952 -13.82949 19.32632 -2.74905 -63.69642 30.52872 22.72785 24.87977 -66.40568 11.93356 45.64401 86.81939 10.04649 -1.07973 52.39453 -15.52214 -34.9925 11.02982 -81.62374 -2.96267 2.57737 2.51363 4.90911 -4.7724 -11.10136 -11.79283 -1.63876 -10.46441 5.04169 10.54681 2.94437 -30.00537 -4.15221 2.77347 12.35903
-0.93039 0.57447 -0.3402 162.78411 0 -2.40725 -14.49057 18.96936 -1.73353 -63.7205 30.49509 20.58753 24.95277 -63.14633 12.00084 46.65953 86.16829 10.68986 -1.31884 52.42218 -14.6995 -30.01192 10.6549 -81.56105 -2.69934 2.73142 2.63424 4.73954 -3.76102 -11.1904 -11.83801 -1.66262 -10.42759 5.28479 10.0133 2.3581 -30.9568 -3.73205 2.88631 12.77089
-0.93075 0.57487 -0.34126 161.70037 0 -2.11431 -15.13216 18.66264 -0.7479 -63.76816 30.52839 18.56885 24.18255 -60.19652 11.51096 47.71662 85.5983 11.39085 -1.58216 52.44754 -13.94626 -25.45939 10.29715 -81.48007 -2.45349 2.88935 2.71107 4.57144 -2.87139 -11.23213 -11.87593 -1.68331 -10.38072 5.58327 9.51766 1.76759 -31.94496 -3.40877 2.97728 13.1599
-0.93119 0.57532 -0.34237 160.71839 0 -1.7739 -15.73112 18.38699 0.16757 -63.83055 30.61058 16.50072 23.31951 -57.2399 10.94233 48.99386 85.19262 12.10156 -1.80255 52.43737 -13.28935 -20.21452 9.87603 -81.39471 -2.17994 3.06725 2.79011 4.35503 -2.03787 -11.30978 -11.88219 -1.71238 -10.38367 5.95116 8.9428 1.09429 -33.08935 -3.10469 3.06424 13.65877
-0.93145 0.57564 -0.34331 159.44571 0 -1.54221 -16.43176 18.01524 1.25194 -63.84875 30.5521 14.47979 23.11713 -54.1421 10.85236 49.74547 84.3829 12.75725 -2.10301 52.50757 -12.38158 -16.27442 9.58799 -81.32924 -1.96006 3.19871 2.88568 4.24529 -1.0201 -11.3304 -11.96285 -1.72413 -10.28091 6.13397 8.52548 0.61229 -33.86177 -2.70882 3.17129 13.9321
